<svg xmlns="http://www.w3.org/2000/svg" width="328" height="328" viewBox="0 0 328 328">
<g>
<path d="M 175.45 211.32 C172.06,215.96 169.61,217.01 168.54,214.30 C166.50,209.16 164.99,152.00 166.89,152.00 C167.38,152.00 168.07,150.85 168.43,149.43 L 169.07 146.87 L 185.57 147.09 C194.65,147.20 204.32,147.75 207.06,148.29 C211.29,149.12 211.96,149.56 211.45,151.15 C210.44,154.34 180.37,204.60 175.45,211.32 ZM 234.57 183.25 C232.71,185.31 230.93,187.00 230.60,187.00 C230.27,187.00 230.00,170.37 230.00,150.04 C230.00,114.51 230.08,113.03 231.93,112.04 C234.98,110.40 268.66,110.66 269.29,112.32 C270.83,116.33 242.25,174.70 234.57,183.25 ZM 118.26 225.75 C117.76,227.23 113.00,227.45 113.00,226.00 C113.00,225.45 113.59,225.00 114.30,225.00 C115.59,225.00 123.26,214.36 130.00,203.21 C131.93,200.02 136.42,192.93 139.98,187.46 C143.55,181.98 146.35,177.12 146.20,176.66 C146.06,176.19 146.51,176.01 147.22,176.26 C147.93,176.50 148.35,177.78 148.15,179.10 C147.65,182.58 147.56,188.71 147.91,195.00 C148.41,203.82 146.90,220.29 145.37,222.74 C144.02,224.89 143.46,224.97 131.32,224.74 C121.93,224.56 118.57,224.82 118.26,225.75 ZM 134.00 202.54 C134.00,203.96 134.58,205.00 135.38,205.00 C137.53,205.00 139.23,202.31 138.52,200.05 C137.99,198.38 137.51,198.19 135.93,199.04 C134.82,199.63 134.00,201.12 134.00,202.54 ZM 141.71 189.98 C141.42,191.09 141.55,192.00 141.99,192.00 C142.82,192.00 144.00,189.56 144.00,187.86 C144.00,186.23 142.28,187.83 141.71,189.98 Z" fill="rgb(3,125,197)"/>
<path d="M 113.31 226.56 C111.73,226.28 109.69,225.81 107.09,225.12 C102.59,223.94 100.46,222.86 99.95,221.47 C98.93,218.73 98.81,178.79 99.82,177.23 C100.45,176.25 106.10,176.02 124.57,176.23 L 146.18 176.47 C146.17,176.53 146.18,176.59 146.20,176.66 C146.35,177.12 143.55,181.98 139.98,187.46 C136.42,192.93 131.93,200.02 130.00,203.21 C123.26,214.36 115.59,225.00 114.30,225.00 C113.59,225.00 113.00,225.45 113.00,226.00 C113.00,226.22 113.11,226.41 113.31,226.56 ZM 147.58 176.49 L 148.50 176.50 L 148.19 178.72 C148.25,177.78 148.00,176.91 147.58,176.49 ZM 118.26 225.75 C118.06,226.34 117.57,226.69 116.65,226.80 C117.44,226.60 118.09,226.25 118.26,225.75 Z" fill="rgb(4,155,209)"/>
<path d="M 175.45 211.32 C180.24,204.77 208.88,156.95 211.31,151.50 C211.26,151.90 211.55,151.79 212.23,151.23 C213.25,150.37 213.44,155.69 213.21,178.72 C212.89,208.91 212.29,213.00 208.12,213.00 C207.12,213.00 204.31,214.05 201.89,215.34 C199.47,216.63 195.69,218.02 193.49,218.42 C191.30,218.82 187.93,220.07 186.00,221.19 C184.03,222.34 180.80,223.21 178.62,223.18 C176.48,223.15 174.09,223.77 173.30,224.56 C171.64,226.22 171.02,226.30 169.14,225.11 C168.31,224.58 168.17,224.01 168.78,223.63 C169.33,223.29 171.01,220.65 172.52,217.76 C174.74,213.48 174.89,212.83 173.30,214.25 C172.22,215.21 170.86,216.00 170.28,216.00 C169.94,216.00 169.54,215.74 169.18,215.34 C170.45,216.57 172.62,215.19 175.45,211.32 ZM 240.41 195.73 C239.46,196.69 236.93,198.25 234.80,199.20 C228.27,202.13 228.73,198.88 237.26,182.00 C238.80,178.95 239.25,177.46 238.27,178.66 C237.71,179.34 236.83,180.41 235.93,181.52 C242.54,172.37 257.59,142.69 265.02,125.24 C264.50,126.63 264.21,127.55 264.29,127.62 C264.43,127.76 266.26,124.53 268.37,120.44 C270.47,116.35 272.56,113.00 273.01,113.00 C273.46,113.00 273.65,118.96 273.43,126.25 C273.20,133.54 272.83,145.97 272.60,153.88 C272.37,161.84 272.51,165.31 271.28,168.21 C270.00,171.22 267.25,173.60 261.06,179.75 C257.04,183.74 253.24,187.00 252.60,187.00 C251.96,187.00 249.95,188.57 248.14,190.50 C246.32,192.43 244.23,194.00 243.49,194.00 C242.75,194.00 241.36,194.78 240.41,195.73 ZM 234.19 183.67 L 234.00 183.90 C232.62,185.59 231.16,186.99 230.75,186.99 C230.74,186.99 230.73,186.98 230.72,186.96 C231.21,186.72 232.64,185.36 234.19,183.67 ZM 203.16 147.83 C198.81,147.47 192.04,147.17 185.57,147.09 C193.15,147.19 198.97,147.43 203.16,147.83 ZM 269.30 112.33 C269.02,111.66 263.48,111.22 256.74,111.03 C263.50,111.22 269.04,111.66 269.29,112.32 L 269.30 112.33 ZM 211.58 150.59 C211.59,150.54 211.59,150.48 211.60,150.43 C211.60,150.48 211.59,150.54 211.58,150.59 Z" fill="rgb(2,81,144)"/>
<path d="M 195.00 221.33 C186.35,224.41 167.34,229.01 166.54,228.21 C165.95,227.62 165.87,198.03 166.12,175.90 C166.36,189.13 167.05,204.24 167.91,211.03 C167.25,208.51 167.14,210.10 167.08,217.38 C167.01,225.50 167.03,226.17 168.43,224.33 C168.50,224.59 168.74,224.85 169.14,225.11 C171.02,226.30 171.64,226.22 173.30,224.56 C174.09,223.77 176.48,223.15 178.62,223.18 C180.80,223.21 184.03,222.34 186.00,221.19 C187.93,220.07 191.30,218.82 193.49,218.42 C195.69,218.02 199.47,216.63 201.89,215.34 C204.31,214.05 207.12,213.00 208.12,213.00 C212.29,213.00 212.89,208.91 213.21,178.72 C213.43,156.53 213.27,150.78 212.34,151.16 C212.72,150.59 213.00,149.50 213.00,148.44 C213.00,147.10 213.45,146.00 214.00,146.00 C214.65,146.00 215.00,157.85 215.00,179.54 L 215.00 213.08 L 208.75 215.87 C205.31,217.40 199.12,219.86 195.00,221.33 ZM 240.41 195.73 C241.36,194.78 242.75,194.00 243.49,194.00 C244.23,194.00 246.32,192.43 248.14,190.50 C249.95,188.57 251.96,187.00 252.60,187.00 C253.24,187.00 257.04,183.74 261.06,179.75 C267.25,173.60 270.00,171.22 271.28,168.21 C272.51,165.31 272.37,161.84 272.60,153.88 C272.83,145.97 273.20,133.54 273.43,126.25 C273.65,119.07 273.47,113.17 273.03,113.00 C273.04,113.00 273.05,113.00 273.06,113.00 C274.03,113.00 274.80,157.52 273.98,165.72 C273.55,169.93 272.78,171.64 269.98,174.57 C264.45,180.33 249.05,193.29 242.50,197.68 C234.86,202.81 230.42,205.09 229.63,204.29 C229.28,203.95 229.03,182.48 229.07,156.58 C229.11,130.69 229.45,110.27 229.82,111.21 C230.31,112.45 230.92,112.66 232.00,111.98 C232.11,111.91 232.37,111.84 232.75,111.77 C232.39,111.85 232.11,111.94 231.94,112.03 L 231.93 112.04 C230.08,113.03 230.00,114.51 230.00,150.04 C230.00,170.37 230.27,187.00 230.60,187.00 C230.63,187.00 230.67,186.99 230.72,186.96 C230.73,186.98 230.74,186.99 230.75,186.99 C230.89,186.99 231.15,186.83 231.48,186.56 C230.41,188.00 230.00,189.63 230.00,192.15 C230.00,195.40 230.36,196.26 231.45,194.43 C229.17,200.34 230.40,201.17 234.80,199.20 C236.93,198.25 239.46,196.69 240.41,195.73 ZM 256.59 111.03 C265.93,111.10 268.89,111.44 269.29,112.31 L 269.30 112.33 C269.02,111.66 263.48,111.22 256.74,111.03 ZM 238.77 178.27 L 237.44 179.87 C236.80,180.65 236.03,181.55 235.25,182.43 C235.47,182.15 235.69,181.85 235.93,181.52 C236.83,180.41 237.71,179.34 238.27,178.66 C238.55,178.31 238.72,178.19 238.77,178.27 ZM 235.06 186.42 C236.14,184.00 237.38,181.48 238.19,180.06 C237.95,180.60 237.63,181.25 237.26,182.00 C236.45,183.59 235.72,185.07 235.06,186.42 ZM 169.45 222.90 C170.32,221.58 171.48,219.64 172.46,217.87 C171.38,219.94 170.21,221.87 169.45,222.90 ZM 174.05 213.66 C173.86,213.80 173.62,214.00 173.34,214.25 C172.47,215.01 171.74,215.51 171.12,215.74 C171.77,215.43 172.60,214.88 173.30,214.25 C173.62,213.96 173.87,213.76 174.05,213.66 ZM 211.43 151.22 C211.41,151.50 211.51,151.64 211.71,151.62 C211.40,151.81 211.28,151.77 211.31,151.50 C211.36,151.39 211.40,151.29 211.43,151.22 ZM 211.58 150.59 C211.59,150.54 211.60,150.48 211.60,150.43 C211.60,150.31 211.59,150.20 211.56,150.10 C211.64,150.28 211.64,150.47 211.57,150.67 C211.58,150.65 211.58,150.62 211.58,150.59 Z" fill="rgb(20,84,133)"/>
<path d="M 118.26 225.75 C118.57,224.82 121.93,224.56 131.32,224.74 C143.46,224.97 144.02,224.89 145.37,222.74 C146.90,220.29 148.41,203.82 147.91,195.00 C147.56,188.71 147.65,182.58 148.15,179.10 C148.17,178.97 148.18,178.85 148.19,178.72 L 148.50 176.50 L 147.58 176.49 C147.57,176.48 147.56,176.48 147.55,176.47 L 150.50 176.50 L 150.77 202.27 C150.98,222.38 150.76,228.14 149.77,228.47 C148.08,229.03 132.41,229.57 128.00,229.22 C126.38,229.09 121.21,228.13 115.72,226.96 C116.04,226.93 116.36,226.87 116.65,226.80 C117.57,226.69 118.06,226.34 118.26,225.75 ZM 256.59 111.03 C247.46,110.79 236.17,111.01 232.75,111.77 C232.37,111.84 232.11,111.91 232.00,111.98 C230.92,112.66 230.31,112.45 229.82,111.21 C229.45,110.27 229.11,130.69 229.07,156.58 C229.03,182.46 229.28,203.91 229.63,204.29 C229.28,203.91 229.00,182.57 229.00,156.83 L 229.00 110.00 L 272.78 110.00 L 273.36 112.29 C273.50,112.84 273.63,115.80 273.74,120.27 C273.54,115.86 273.31,113.00 273.06,113.00 C273.05,113.00 273.04,113.00 273.03,113.00 C273.03,113.00 273.02,113.00 273.01,113.00 C272.56,113.00 270.47,116.35 268.37,120.44 C266.26,124.53 264.43,127.76 264.29,127.62 C264.21,127.55 264.50,126.63 265.02,125.24 C267.95,118.39 269.70,113.42 269.30,112.33 L 269.29 112.32 C268.89,111.44 265.93,111.10 256.59,111.03 ZM 203.16 147.83 C198.97,147.43 193.15,147.19 185.57,147.09 L 169.07 146.87 L 168.43 149.43 C168.07,150.85 167.38,152.00 166.89,152.00 C166.65,152.00 166.46,152.93 166.32,154.57 C166.41,151.00 166.51,148.69 166.63,148.25 L 167.23 146.00 L 215.00 146.00 L 215.00 179.54 C215.00,157.85 214.65,146.00 214.00,146.00 C213.45,146.00 213.00,147.10 213.00,148.44 C213.00,149.50 212.72,150.59 212.34,151.16 C212.30,151.17 212.26,151.19 212.23,151.23 C212.02,151.40 211.84,151.53 211.71,151.62 C211.51,151.64 211.41,151.50 211.43,151.22 C211.44,151.20 211.44,151.17 211.45,151.15 C211.51,150.98 211.55,150.82 211.57,150.67 C211.64,150.47 211.64,150.28 211.56,150.10 L 211.56 150.10 C211.35,149.30 210.16,148.90 207.06,148.29 C206.27,148.13 204.91,147.98 203.16,147.83 ZM 169.45 222.90 C169.16,223.29 168.93,223.54 168.78,223.63 C168.47,223.83 168.36,224.07 168.43,224.33 C167.03,226.17 167.01,225.50 167.08,217.38 C167.14,210.10 167.25,208.51 167.91,211.03 C168.11,212.62 168.32,213.75 168.54,214.30 C168.72,214.75 168.93,215.09 169.18,215.34 C169.54,215.74 169.94,216.00 170.28,216.00 C170.48,216.00 170.78,215.90 171.12,215.74 C171.74,215.51 172.47,215.01 173.34,214.25 C173.62,214.00 173.86,213.80 174.05,213.66 C174.75,213.24 174.30,214.34 172.52,217.76 C172.50,217.79 172.48,217.83 172.46,217.87 C171.48,219.64 170.32,221.58 169.45,222.90 ZM 234.57 183.25 C234.78,183.01 235.01,182.74 235.25,182.43 C236.03,181.55 236.80,180.65 237.44,179.87 L 238.77 178.27 C238.85,178.40 238.64,179.03 238.19,180.06 C237.38,181.48 236.14,184.00 235.06,186.42 C233.43,189.75 232.23,192.39 231.45,194.43 C230.36,196.26 230.00,195.40 230.00,192.15 C230.00,189.63 230.41,188.00 231.48,186.56 C232.13,186.02 233.09,185.03 234.00,183.90 L 234.19 183.67 C234.31,183.53 234.44,183.39 234.57,183.25 ZM 134.00 202.54 C134.00,201.12 134.82,199.63 135.93,199.04 C137.51,198.19 137.99,198.38 138.52,200.05 C139.23,202.31 137.53,205.00 135.38,205.00 C134.58,205.00 134.00,203.96 134.00,202.54 ZM 141.71 189.98 C142.28,187.83 144.00,186.23 144.00,187.86 C144.00,189.56 142.82,192.00 141.99,192.00 C141.55,192.00 141.42,191.09 141.71,189.98 ZM 99.45 216.08 C98.88,204.49 98.96,178.55 99.82,177.23 C99.84,177.19 99.88,177.15 99.93,177.11 C99.88,177.15 99.85,177.19 99.82,177.23 C99.01,178.48 98.92,204.46 99.45,216.08 ZM 272.34 171.63 C273.30,170.03 273.71,168.37 273.98,165.72 C274.00,165.51 274.02,165.27 274.04,165.01 L 274.03 165.25 C274.01,168.19 273.71,169.69 272.34,171.63 ZM 242.50 197.68 C246.91,194.73 255.33,187.89 262.04,181.97 C255.49,187.80 247.25,194.50 242.50,197.68 ZM 115.04 176.16 C118.00,176.16 121.48,176.19 125.57,176.23 L 146.18 176.45 C146.18,176.46 146.18,176.47 146.18,176.47 L 124.57 176.23 C120.91,176.19 117.76,176.17 115.04,176.16 ZM 166.03 186.02 C166.04,181.84 166.06,177.70 166.08,173.77 C166.09,174.47 166.10,175.18 166.12,175.90 C166.08,179.15 166.05,182.56 166.03,186.02 ZM 101.72 223.21 C101.16,222.92 100.77,222.63 100.49,222.30 C100.79,222.62 101.20,222.92 101.72,223.21 Z" fill="rgb(12,117,181)"/>
<path d="M 172.57 289.07 C159.99,291.38 130.44,292.40 115.45,291.04 C92.42,288.96 67.56,281.96 49.12,272.36 C39.16,267.17 35.33,265.41 33.88,262.47 C32.97,260.64 32.99,258.35 33.01,254.49 C33.02,253.92 33.02,253.32 33.02,252.68 C33.04,242.89 33.11,242.58 34.77,244.60 C41.99,253.37 67.59,265.53 87.05,269.42 C132.25,278.47 185.79,269.00 225.21,244.97 L 226.38 244.26 C234.42,239.36 236.76,237.93 236.93,238.15 C237.00,238.24 236.70,238.61 236.28,239.13 C236.23,239.18 236.18,239.25 236.13,239.31 C235.37,240.24 234.19,241.00 233.50,241.00 C232.81,241.00 231.63,241.76 230.87,242.69 C229.67,244.16 229.72,244.29 231.24,243.72 C232.19,243.37 232.89,243.39 232.79,243.79 C232.49,244.93 234.07,249.00 234.82,249.00 C235.19,249.00 236.72,250.05 238.21,251.34 C240.28,253.11 240.65,253.95 239.76,254.84 C238.88,255.72 238.92,256.00 239.92,256.00 C240.99,256.00 241.00,256.29 239.98,257.52 C239.21,258.45 237.94,258.80 236.73,258.42 C235.50,258.02 234.99,258.17 235.38,258.81 C235.73,259.38 235.31,260.55 234.44,261.42 C231.68,264.18 233.90,263.14 240.07,258.79 C243.47,256.39 245.84,254.03 245.57,253.31 C245.30,252.62 245.96,251.44 247.04,250.69 C248.11,249.94 248.65,248.95 248.24,248.50 C247.83,248.05 248.04,247.99 248.71,248.37 C249.37,248.75 249.65,249.84 249.33,250.78 C248.68,252.68 240.24,261.00 238.95,261.00 C238.51,261.00 236.51,262.54 234.52,264.41 C224.68,273.70 197.58,284.48 172.57,289.07 ZM 246.50 252.00 C246.16,252.55 246.36,253.00 246.94,253.00 C247.52,253.00 248.00,252.55 248.00,252.00 C248.00,251.45 247.80,251.00 247.56,251.00 C247.32,251.00 246.84,251.45 246.50,252.00 Z" fill="rgb(38,106,42)"/>
<path d="M 231.15 267.18 C232.43,266.25 233.56,265.32 234.52,264.41 C236.51,262.54 238.51,261.00 238.95,261.00 C240.24,261.00 248.68,252.68 249.33,250.78 C249.65,249.84 249.37,248.75 248.71,248.37 C248.04,247.99 247.83,248.05 248.24,248.50 C248.65,248.95 248.11,249.94 247.04,250.69 C245.96,251.44 245.30,252.62 245.57,253.31 C245.84,254.03 243.47,256.39 240.07,258.79 C233.90,263.14 231.68,264.18 234.44,261.42 C235.31,260.55 235.73,259.38 235.38,258.81 C234.99,258.17 235.50,258.02 236.73,258.42 C237.94,258.80 239.21,258.45 239.98,257.52 C241.00,256.29 240.99,256.00 239.92,256.00 C238.92,256.00 238.88,255.72 239.76,254.84 C240.65,253.95 240.28,253.11 238.21,251.34 C236.72,250.05 235.19,249.00 234.82,249.00 C234.07,249.00 232.49,244.93 232.79,243.79 C232.89,243.39 232.19,243.37 231.24,243.72 C229.72,244.29 229.67,244.16 230.87,242.69 C231.63,241.76 232.81,241.00 233.50,241.00 C234.19,241.00 235.37,240.24 236.13,239.31 C236.18,239.25 236.23,239.18 236.28,239.13 C236.70,238.61 237.00,238.24 236.93,238.15 C236.76,237.93 234.42,239.36 226.38,244.26 L 226.38 244.26 L 225.21 244.97 C222.80,246.44 220.33,247.86 217.82,249.22 C230.73,242.13 242.69,233.24 255.67,221.43 C264.96,212.97 277.78,197.30 282.93,188.09 C284.95,184.49 286.65,182.43 287.06,183.09 C287.57,183.92 287.87,183.90 288.16,183.01 C288.38,182.35 288.70,183.76 288.87,186.15 C289.44,194.39 289.07,199.00 287.83,199.00 C286.54,199.00 286.85,201.78 288.20,202.23 C288.94,202.48 288.72,202.89 287.65,203.31 C286.44,203.77 286.09,203.59 286.52,202.74 C286.87,202.06 286.44,202.37 285.57,203.44 C283.83,205.59 283.43,208.47 285.00,207.50 C286.85,206.36 286.03,208.50 281.73,216.05 C269.86,236.87 252.36,254.30 231.15,267.18 ZM 158.19 291.01 C146.28,292.16 134.12,292.29 122.14,291.46 C136.39,292.04 156.90,291.26 168.84,289.65 C165.32,290.21 161.77,290.66 158.19,291.01 ZM 246.50 252.00 C246.84,251.45 247.32,251.00 247.56,251.00 C247.80,251.00 248.00,251.45 248.00,252.00 C248.00,252.55 247.52,253.00 246.94,253.00 C246.36,253.00 246.16,252.55 246.50,252.00 ZM 56.74 259.04 C46.82,254.37 38.43,249.05 34.77,244.60 C38.16,248.72 46.75,254.24 56.74,259.04 ZM 103.45 271.87 C116.32,273.14 130.05,273.07 143.76,271.65 C130.21,273.09 116.60,273.19 103.45,271.87 ZM 180.02 287.54 C184.99,286.41 189.96,285.07 194.80,283.58 C189.97,285.10 185.04,286.42 180.02,287.54 ZM 70.82 281.50 C63.10,278.90 55.81,275.84 49.12,272.36 C55.67,275.77 63.02,278.85 70.82,281.50 ZM 91.96 270.33 C90.32,270.05 88.68,269.75 87.05,269.42 C85.29,269.07 83.47,268.65 81.62,268.17 C84.96,269.00 88.42,269.72 91.96,270.33 Z" fill="rgb(60,133,44)"/>
<path d="M 56.74 259.04 C46.75,254.24 38.16,248.72 34.77,244.60 C33.48,243.03 33.15,242.87 33.06,247.49 L 33.21 231.90 C33.37,214.91 33.84,201.00 34.25,201.00 C34.66,201.00 35.00,199.65 35.00,198.00 C35.00,196.35 35.23,195.00 35.51,195.00 C36.89,195.00 42.93,199.63 42.73,200.53 C42.36,202.18 58.79,217.00 60.99,217.00 C61.66,217.00 63.55,218.12 65.18,219.50 C66.82,220.88 68.89,222.00 69.78,222.00 C70.67,222.00 72.81,223.37 74.54,225.04 C76.26,226.71 78.98,228.30 80.59,228.57 C82.19,228.85 85.41,229.96 87.74,231.04 C90.07,232.12 93.13,233.00 94.54,233.00 C95.95,233.00 98.31,233.61 99.80,234.36 C101.33,235.13 107.48,235.98 114.00,236.31 C120.32,236.64 127.97,237.44 131.00,238.09 C142.97,240.67 191.00,236.60 191.00,233.00 C191.00,232.67 192.56,232.58 194.46,232.81 C196.87,233.09 199.06,232.50 201.67,230.90 C203.91,229.51 206.63,228.69 208.46,228.85 C210.44,229.02 212.29,228.38 213.74,227.02 C214.97,225.88 218.57,223.96 221.74,222.76 C227.45,220.61 242.09,212.23 248.94,207.20 C257.78,200.71 265.00,194.56 265.00,193.52 C265.00,192.90 268.26,188.52 272.25,183.78 C280.66,173.80 282.40,171.45 286.54,164.56 C288.22,161.78 290.47,158.04 291.54,156.27 C294.70,151.05 298.74,150.78 297.59,155.87 C297.27,157.32 296.38,162.40 295.62,167.16 C294.86,171.93 293.54,177.21 292.70,178.90 C290.95,182.41 290.01,186.21 289.40,192.28 C288.74,198.91 288.71,199.00 287.83,199.00 C289.07,199.00 289.44,194.39 288.87,186.15 C288.70,183.76 288.38,182.35 288.16,183.01 C287.87,183.90 287.57,183.92 287.06,183.09 C286.65,182.43 284.95,184.49 282.93,188.09 C277.78,197.30 264.96,212.97 255.67,221.43 C242.69,233.24 230.73,242.13 217.82,249.22 L 217.82 249.22 C195.66,261.21 169.80,268.90 143.76,271.65 C143.72,271.66 143.67,271.66 143.63,271.67 C129.97,273.07 116.28,273.14 103.45,271.87 L 103.45 271.87 C99.58,271.48 95.75,270.97 91.96,270.33 L 91.96 270.33 C88.41,269.72 84.96,269.00 81.62,268.17 C73.43,266.04 64.61,262.74 56.74,259.04 ZM 88.13 166.87 C86.13,168.87 81.53,169.74 75.75,169.22 C71.73,168.86 70.71,167.15 74.00,166.29 C75.10,166.00 76.00,165.41 76.00,164.98 C76.00,164.54 76.81,164.40 77.80,164.66 C78.79,164.92 81.38,164.46 83.55,163.64 C97.23,158.50 101.05,156.95 105.68,154.64 C108.52,153.23 112.11,151.84 113.65,151.56 C115.18,151.28 117.58,150.20 118.99,149.17 C120.39,148.13 122.48,146.98 123.64,146.62 C124.79,146.25 126.54,145.06 127.52,143.97 C128.51,142.89 130.12,142.00 131.10,142.00 C132.09,142.00 134.11,140.88 135.59,139.50 C137.08,138.12 139.06,137.00 139.99,137.00 C140.93,137.00 142.50,136.10 143.50,135.00 C144.50,133.90 145.92,133.00 146.65,133.00 C147.39,133.00 148.89,132.11 149.98,131.02 C152.28,128.72 161.69,122.00 162.61,122.00 C162.95,122.00 164.77,120.65 166.65,119.00 C168.53,117.35 170.50,116.00 171.03,116.00 C171.57,116.00 172.00,115.38 172.00,114.63 C172.00,113.88 173.69,112.12 175.75,110.73 C185.75,103.96 214.44,72.55 213.78,69.09 C213.62,68.28 209.36,65.13 204.31,62.10 C199.26,59.07 195.37,56.21 195.66,55.73 C196.63,54.17 201.43,52.74 206.68,52.44 C209.53,52.28 212.73,51.68 213.80,51.11 C217.40,49.18 231.88,45.13 244.50,42.53 C247.80,41.85 252.38,40.61 254.67,39.79 C259.44,38.07 260.54,38.48 260.64,42.00 C261.09,56.83 261.00,90.19 260.51,90.98 C259.73,92.25 257.00,92.33 257.00,91.08 C257.00,90.07 248.01,86.35 246.63,86.80 C246.15,86.96 245.98,86.50 246.25,85.79 C246.52,85.08 246.34,83.44 245.86,82.15 C245.22,80.41 244.53,79.98 243.24,80.53 C242.28,80.93 240.05,81.19 238.28,81.10 C235.53,80.96 234.95,81.35 234.36,83.72 C233.61,86.76 227.38,93.27 216.50,102.42 C212.65,105.65 208.69,109.13 207.71,110.15 C206.73,111.17 205.29,112.00 204.51,112.00 C203.73,112.00 202.74,112.57 202.30,113.28 C201.19,115.05 194.26,120.33 189.69,122.90 C187.59,124.07 185.34,125.47 184.69,126.00 C180.44,129.47 173.83,134.00 173.03,134.00 C172.50,134.00 169.94,135.35 167.34,137.00 C164.74,138.65 161.67,140.00 160.53,140.00 C159.38,140.00 156.97,141.35 155.16,143.00 C153.35,144.65 151.12,146.00 150.19,146.01 C149.26,146.01 147.21,146.68 145.64,147.51 C144.06,148.33 142.01,149.00 141.08,149.00 C140.15,149.00 137.17,150.05 134.45,151.33 C122.87,156.77 107.06,162.03 97.50,163.61 C91.18,164.66 89.89,165.11 88.13,166.87 ZM 33.03 251.02 C33.02,251.54 33.02,252.09 33.02,252.68 C33.02,253.32 33.02,253.92 33.01,254.49 C32.99,258.35 32.97,260.64 33.88,262.47 C34.36,263.43 35.09,264.27 36.21,265.15 C36.08,265.06 35.95,264.97 35.83,264.88 L 32.92 262.80 ZM 66.17 279.86 C67.70,280.42 69.25,280.97 70.81,281.49 L 70.82 281.50 C75.42,283.06 80.17,284.47 85.00,285.72 C80.34,284.56 75.82,283.26 71.50,281.80 C69.85,281.25 68.05,280.59 66.17,279.86 ZM 42.38 268.84 C43.93,269.67 45.75,270.61 47.86,271.70 C45.91,270.73 44.06,269.77 42.38,268.84 Z" fill="rgb(91,173,44)"/>
<path d="M 88.13 166.87 C89.89,165.11 91.18,164.66 97.50,163.61 C107.06,162.03 122.87,156.77 134.45,151.33 C137.17,150.05 140.15,149.00 141.08,149.00 C142.01,149.00 144.06,148.33 145.64,147.51 C147.21,146.68 149.26,146.01 150.19,146.01 C151.12,146.00 153.35,144.65 155.16,143.00 C156.97,141.35 159.38,140.00 160.53,140.00 C161.67,140.00 164.74,138.65 167.34,137.00 C169.94,135.35 172.50,134.00 173.03,134.00 C173.83,134.00 180.44,129.47 184.69,126.00 C185.34,125.47 187.59,124.07 189.69,122.90 C194.26,120.33 201.19,115.05 202.30,113.28 C202.74,112.57 203.73,112.00 204.51,112.00 C205.29,112.00 206.73,111.17 207.71,110.15 C208.69,109.13 212.65,105.65 216.50,102.42 C227.38,93.27 233.61,86.76 234.36,83.72 C234.95,81.35 235.53,80.96 238.28,81.10 C240.05,81.19 242.28,80.93 243.24,80.53 C244.53,79.98 245.22,80.41 245.86,82.15 C246.34,83.44 246.52,85.08 246.25,85.79 C246.14,86.07 246.10,86.31 246.12,86.49 C244.12,84.98 242.64,83.89 242.26,83.65 C241.44,83.15 236.81,87.11 228.76,95.20 C207.39,116.65 181.02,134.53 150.16,148.49 C135.88,154.95 105.41,165.46 98.22,166.41 C96.72,166.60 94.23,167.27 92.68,167.88 C91.14,168.50 88.11,169.00 85.96,169.00 C83.80,169.00 80.17,169.75 77.89,170.66 C75.61,171.57 70.87,172.36 67.37,172.41 C63.87,172.46 61.00,172.84 61.00,173.25 C61.00,173.66 60.55,174.00 60.00,174.00 C58.49,174.00 58.80,172.88 60.75,171.31 C62.35,170.02 62.29,169.94 60.00,170.45 L 57.50 171.01 L 60.00 169.90 C61.38,169.29 63.17,168.48 64.00,168.10 C64.82,167.72 68.20,166.57 71.50,165.55 C74.80,164.53 78.85,163.12 80.50,162.42 C82.15,161.72 84.85,160.83 86.50,160.44 C88.15,160.05 89.95,159.40 90.50,159.00 C91.05,158.59 94.11,157.30 97.29,156.13 C104.32,153.54 129.95,140.73 135.50,137.03 C137.70,135.57 143.54,131.70 148.47,128.43 C168.17,115.39 195.35,90.86 206.96,75.63 C207.18,75.34 207.39,75.07 207.59,74.81 C209.50,72.30 210.56,70.92 210.37,69.74 C210.12,68.17 207.64,66.95 202.00,63.91 C193.10,59.11 191.57,57.66 192.86,55.27 C193.49,54.09 195.34,53.00 197.23,52.69 C199.03,52.40 202.98,51.40 206.00,50.48 C209.02,49.56 213.07,48.42 215.00,47.96 C216.93,47.49 220.98,46.36 224.00,45.45 C227.02,44.54 231.75,43.20 234.50,42.47 C237.25,41.73 244.35,39.71 250.28,37.97 C258.93,35.42 261.35,35.04 262.53,36.02 C263.76,37.04 264.00,41.73 264.00,64.61 C264.00,91.17 263.94,92.06 261.85,94.45 L 259.71 96.92 L 251.60 90.67 C249.81,89.29 248.06,87.95 246.56,86.82 C246.58,86.81 246.60,86.81 246.63,86.80 C248.01,86.35 257.00,90.07 257.00,91.08 C257.00,92.33 259.73,92.25 260.51,90.98 C261.00,90.19 261.09,56.83 260.64,42.00 C260.54,38.48 259.44,38.07 254.67,39.79 C252.38,40.61 247.80,41.85 244.50,42.53 C231.88,45.13 217.40,49.18 213.80,51.11 C212.73,51.68 209.53,52.28 206.68,52.44 C201.43,52.74 196.63,54.17 195.66,55.73 C195.37,56.21 199.26,59.07 204.31,62.10 C209.36,65.13 213.62,68.28 213.78,69.09 C214.44,72.55 185.75,103.96 175.75,110.73 C173.69,112.12 172.00,113.88 172.00,114.63 C172.00,115.38 171.57,116.00 171.03,116.00 C170.50,116.00 168.53,117.35 166.65,119.00 C164.77,120.65 162.95,122.00 162.61,122.00 C161.69,122.00 152.28,128.72 149.98,131.02 C148.89,132.11 147.39,133.00 146.65,133.00 C145.92,133.00 144.50,133.90 143.50,135.00 C142.50,136.10 140.93,137.00 139.99,137.00 C139.06,137.00 137.08,138.12 135.59,139.50 C134.11,140.88 132.09,142.00 131.10,142.00 C130.12,142.00 128.51,142.89 127.52,143.97 C126.54,145.06 124.79,146.25 123.64,146.62 C122.48,146.98 120.39,148.13 118.99,149.17 C117.58,150.20 115.18,151.28 113.65,151.56 C112.11,151.84 108.52,153.23 105.68,154.64 C101.05,156.95 97.23,158.50 83.55,163.64 C81.38,164.46 78.79,164.92 77.80,164.66 C76.81,164.40 76.00,164.54 76.00,164.98 C76.00,165.41 75.10,166.00 74.00,166.29 C70.71,167.15 71.73,168.86 75.75,169.22 C81.53,169.74 86.13,168.87 88.13,166.87 ZM 40.44 198.01 C43.87,200.45 48.45,203.98 52.00,206.99 C55.03,209.55 59.75,213.21 62.50,215.12 C68.31,219.16 82.66,227.00 84.23,227.00 C84.83,227.00 86.79,228.12 88.59,229.50 C91.05,231.38 93.08,232.00 96.73,232.00 C99.41,232.00 102.03,232.40 102.55,232.90 C103.07,233.39 105.30,234.03 107.50,234.31 C109.70,234.60 113.75,235.36 116.50,236.00 C121.31,237.12 149.37,237.42 162.50,236.49 C177.74,235.41 191.40,232.82 199.32,229.51 C201.31,228.68 204.73,228.00 206.93,228.00 C209.53,228.00 211.55,227.35 212.71,226.13 C215.47,223.24 220.93,220.80 224.66,220.80 C225.31,220.80 225.90,220.74 226.44,220.63 C224.58,221.56 222.96,222.30 221.74,222.76 C218.57,223.96 214.97,225.88 213.74,227.02 C212.29,228.38 210.44,229.02 208.46,228.85 C206.63,228.69 203.91,229.51 201.67,230.90 C199.06,232.50 196.87,233.09 194.46,232.81 C192.56,232.58 191.00,232.67 191.00,233.00 C191.00,236.60 142.97,240.67 131.00,238.09 C127.97,237.44 120.32,236.64 114.00,236.31 C107.48,235.98 101.33,235.13 99.80,234.36 C98.31,233.61 95.95,233.00 94.54,233.00 C93.13,233.00 90.07,232.12 87.74,231.04 C85.41,229.96 82.19,228.85 80.59,228.57 C78.98,228.30 76.26,226.71 74.54,225.04 C72.81,223.37 70.67,222.00 69.78,222.00 C68.89,222.00 66.82,220.88 65.18,219.50 C63.55,218.12 61.66,217.00 60.99,217.00 C58.79,217.00 42.36,202.18 42.73,200.53 C42.81,200.15 41.77,199.09 40.44,198.01 ZM 297.70 155.34 C297.86,156.11 297.99,157.03 298.11,158.08 C298.93,165.47 296.61,179.41 292.51,191.66 C291.26,195.40 289.93,198.96 288.50,202.37 C288.43,202.32 288.33,202.28 288.20,202.23 C286.85,201.78 286.54,199.00 287.83,199.00 C288.71,199.00 288.74,198.91 289.40,192.28 C290.01,186.21 290.95,182.41 292.70,178.90 C293.54,177.21 294.86,171.93 295.62,167.16 C296.38,162.40 297.27,157.32 297.59,155.87 C297.64,155.68 297.67,155.51 297.70,155.34 ZM 229.01 219.31 C229.16,219.16 229.29,218.99 229.42,218.81 C230.18,217.72 232.99,215.38 235.66,213.62 C244.90,207.51 256.98,198.85 257.56,197.91 C257.88,197.39 258.58,197.24 259.11,197.57 C259.64,197.90 260.74,197.57 261.84,196.96 C258.91,199.57 254.21,203.32 248.94,207.20 C244.19,210.69 235.68,215.80 229.01,219.31 ZM 288.21 203.04 C287.24,205.32 286.22,207.54 285.15,209.71 C286.27,207.35 286.15,206.79 285.00,207.50 C283.43,208.47 283.83,205.59 285.57,203.44 C286.44,202.37 286.87,202.06 286.52,202.74 C286.09,203.59 286.44,203.77 287.65,203.31 C287.87,203.22 288.06,203.13 288.21,203.04 ZM 180.02 287.54 C185.04,286.42 189.97,285.10 194.79,283.58 L 194.80 283.58 C199.48,282.13 204.03,280.54 208.31,278.87 C197.17,283.45 185.31,286.84 172.79,289.03 C175.18,288.59 177.60,288.09 180.02,287.54 ZM 268.47 188.43 C269.58,187.00 270.87,185.38 272.25,183.74 C277.24,177.77 280.02,174.37 282.05,171.55 C279.87,174.64 277.23,177.87 272.25,183.78 C270.87,185.42 269.58,187.02 268.47,188.43 ZM 285.23 166.72 C285.47,166.33 285.71,165.92 285.95,165.50 C287.61,162.64 289.04,160.27 290.28,158.37 C289.14,160.24 287.71,162.63 286.54,164.56 C286.08,165.33 285.65,166.05 285.23,166.72 ZM 284.14 211.70 C282.46,214.92 280.66,218.04 278.70,221.09 C279.75,219.43 280.76,217.75 281.73,216.05 C282.71,214.33 283.51,212.88 284.14,211.70 ZM 158.19 291.01 C161.77,290.66 165.32,290.21 168.84,289.65 C169.39,289.58 169.93,289.50 170.45,289.42 C166.43,290.07 162.34,290.60 158.19,291.01 ZM 231.15 267.18 C231.71,266.84 232.27,266.49 232.83,266.15 C232.20,266.55 231.56,266.95 230.92,267.35 C231.00,267.29 231.07,267.24 231.15,267.18 ZM 294.97 152.60 C295.18,152.47 295.38,152.38 295.57,152.33 C295.37,152.40 295.17,152.49 294.97,152.60 ZM 35.60 195.00 C35.61,195.00 35.62,195.00 35.63,195.00 C35.69,195.00 35.78,195.03 35.91,195.08 C35.79,195.04 35.68,195.01 35.60,195.00 Z" fill="rgb(96,160,63)"/>
<path d="M 40.44 198.01 C38.88,196.73 36.92,195.41 35.91,195.08 C35.78,195.03 35.69,195.00 35.63,195.00 C35.62,195.00 35.61,195.00 35.60,195.00 C35.57,195.00 35.54,195.00 35.51,195.00 C35.23,195.00 35.00,196.35 35.00,198.00 C35.00,199.65 34.66,201.00 34.25,201.00 C33.84,201.00 33.37,214.91 33.21,231.90 L 33.13 240.34 L 33.18 225.45 C33.24,204.85 33.67,188.00 34.12,188.00 C34.58,188.00 35.75,189.24 36.72,190.75 C37.69,192.26 39.51,194.32 40.75,195.33 C42.00,196.34 42.80,197.51 42.53,197.94 C42.26,198.39 45.54,201.53 49.91,205.25 C46.77,202.69 43.23,199.99 40.44,198.01 ZM 297.70 155.34 C298.12,152.80 297.09,151.82 295.57,152.33 C295.38,152.38 295.18,152.47 294.97,152.60 C293.89,153.19 292.66,154.41 291.54,156.27 C291.40,156.50 291.25,156.76 291.07,157.05 C291.50,156.26 291.85,155.57 292.11,155.00 C297.01,144.19 298.35,141.94 299.19,143.19 C299.67,143.91 299.80,148.55 299.46,153.50 C299.04,159.79 298.36,165.79 297.40,171.54 C298.20,166.21 298.48,161.46 298.11,158.08 C297.99,157.03 297.86,156.11 297.70,155.34 ZM 229.01 219.31 C228.11,219.78 227.26,220.22 226.44,220.63 C225.90,220.74 225.31,220.80 224.66,220.80 C220.93,220.80 215.47,223.24 212.71,226.13 C211.55,227.35 209.53,228.00 206.93,228.00 C204.73,228.00 201.31,228.68 199.32,229.51 C195.80,230.98 191.14,232.31 185.71,233.43 C191.58,232.09 197.44,230.22 205.04,227.43 C218.66,222.44 231.81,216.06 240.97,210.04 C239.16,211.28 237.36,212.50 235.66,213.62 C232.99,215.38 230.18,217.72 229.42,218.81 C229.29,218.99 229.16,219.16 229.01,219.31 ZM 59.23 173.82 C57.05,174.12 55.44,174.35 55.00,174.44 C54.17,174.60 52.19,174.46 50.59,174.12 C46.53,173.25 48.82,171.69 56.50,170.08 C59.49,169.45 62.55,168.67 63.70,168.24 C62.80,168.65 61.23,169.36 60.00,169.90 L 57.50 171.01 L 60.00 170.45 C62.29,169.94 62.35,170.02 60.75,171.31 C59.26,172.51 58.72,173.45 59.23,173.82 ZM 268.47 188.43 C266.39,191.10 265.00,193.12 265.00,193.52 C265.00,193.94 263.82,195.19 261.84,196.96 C260.74,197.57 259.64,197.90 259.11,197.57 C258.58,197.24 257.88,197.39 257.56,197.91 C257.15,198.57 251.08,203.03 244.30,207.75 C252.54,201.76 265.10,190.98 271.69,184.40 C270.52,185.82 269.43,187.19 268.47,188.43 ZM 101.28 232.42 C100.15,232.17 98.45,232.00 96.73,232.00 C93.08,232.00 91.05,231.38 88.59,229.50 C87.96,229.02 87.32,228.58 86.72,228.20 C88.05,228.69 91.64,229.71 95.00,230.55 C97.48,231.18 99.87,231.89 101.28,232.42 ZM 259.93 96.66 L 261.85 94.45 C263.08,93.05 263.60,92.16 263.83,86.31 C263.68,93.50 263.45,98.22 263.20,98.38 C262.98,98.51 261.75,97.85 259.93,96.66 ZM 196.33 52.89 C194.78,53.35 193.39,54.28 192.86,55.27 C192.16,56.57 192.29,57.59 193.99,59.03 C190.81,57.00 189.85,56.10 190.00,55.45 C190.09,55.06 190.57,54.76 191.21,54.37 C191.87,53.96 194.15,53.31 196.33,52.89 ZM 65.87 172.97 C64.13,173.18 62.42,173.40 60.88,173.60 C60.96,173.50 61.00,173.38 61.00,173.25 C61.00,172.84 63.87,172.46 67.37,172.41 C68.72,172.39 70.24,172.26 71.74,172.06 C69.86,172.41 67.82,172.72 65.87,172.97 ZM 83.86 226.93 C81.10,226.15 67.99,218.94 62.50,215.12 C60.39,213.65 57.11,211.15 54.33,208.91 C57.12,211.15 60.00,213.36 62.50,215.11 C66.34,217.80 77.44,223.90 83.86,226.93 ZM 209.10 72.79 C208.68,73.37 208.17,74.04 207.59,74.81 C207.39,75.07 207.18,75.34 206.96,75.63 C203.99,79.52 200.00,84.03 195.38,88.80 C200.62,83.10 206.24,76.52 209.10,72.79 ZM 164.53 116.63 C158.94,121.08 153.47,125.13 148.47,128.43 C148.07,128.70 147.66,128.97 147.25,129.24 C153.20,125.16 159.01,120.91 164.53,116.63 ZM 285.23 166.72 C284.13,168.51 283.15,170.01 282.05,171.55 C281.33,172.56 280.51,173.63 279.53,174.88 C281.74,171.80 284.08,168.36 286.16,165.14 C286.09,165.26 286.02,165.38 285.95,165.50 C285.71,165.92 285.47,166.33 285.23,166.72 ZM 288.57 202.44 C288.55,202.41 288.52,202.39 288.50,202.37 C289.93,198.96 291.26,195.40 292.51,191.66 C293.10,189.92 293.64,188.15 294.15,186.36 C292.61,191.94 290.76,197.28 288.57,202.44 ZM 202.89 64.39 C206.53,66.35 208.70,67.50 209.71,68.55 C209.16,68.14 208.48,67.68 207.75,67.25 C205.97,66.20 204.35,65.25 202.89,64.39 ZM 288.21 203.04 C288.26,203.02 288.30,202.99 288.34,202.97 C286.81,206.51 285.12,209.97 283.26,213.35 C283.56,212.81 283.85,212.25 284.14,211.70 C284.55,210.93 284.88,210.27 285.15,209.71 C286.22,207.54 287.24,205.32 288.21,203.04 ZM 137.35 135.80 C136.60,136.30 135.97,136.72 135.50,137.03 C133.60,138.30 129.34,140.64 124.28,143.26 C128.84,140.87 132.83,138.66 135.26,137.13 C135.96,136.69 136.65,136.25 137.35,135.80 ZM 240.82 84.18 C238.68,85.65 234.30,89.63 228.76,95.20 C234.68,89.25 238.75,85.53 240.82,84.18 ZM 206.00 50.46 C209.02,49.55 213.07,48.42 215.00,47.96 C213.07,48.42 209.02,49.56 206.00,50.48 C203.45,51.26 200.24,52.09 198.22,52.50 C200.53,51.98 203.65,51.17 206.00,50.46 ZM 242.22 83.63 C242.23,83.64 242.24,83.65 242.26,83.65 C242.64,83.89 244.12,84.98 246.12,86.49 C246.12,86.49 246.13,86.50 246.13,86.50 C244.10,84.99 242.64,83.91 242.22,83.63 ZM 107.50 234.30 C109.70,234.59 113.75,235.36 116.50,236.00 C113.75,235.36 109.70,234.60 107.50,234.31 C106.77,234.22 106.03,234.08 105.36,233.93 C106.03,234.08 106.77,234.21 107.50,234.30 ZM 42.38 268.84 C44.06,269.77 45.91,270.73 47.86,271.70 L 47.93 271.74 C45.86,270.71 43.91,269.69 42.14,268.72 C42.22,268.76 42.30,268.80 42.38,268.84 ZM 246.55 86.82 C246.55,86.82 246.56,86.82 246.56,86.82 C247.09,87.22 247.66,87.65 248.25,88.10 C247.65,87.65 247.08,87.22 246.55,86.82 ZM 78.03 170.60 C78.20,170.54 78.38,170.47 78.56,170.41 C78.41,170.47 78.23,170.54 78.03,170.60 ZM 264.00 69.19 C264.00,68.33 264.00,67.43 264.00,66.50 C264.00,66.85 264.00,67.21 264.00,67.56 C264.00,68.11 264.00,68.65 264.00,69.19 ZM 36.23 265.16 C36.12,265.08 36.01,265.00 35.90,264.93 C36.00,265.00 36.11,265.07 36.21,265.15 ZM 97.44 156.07 C97.39,156.09 97.34,156.11 97.29,156.13 C97.13,156.19 96.96,156.25 96.80,156.31 C96.98,156.24 97.17,156.18 97.35,156.11 C97.38,156.10 97.41,156.09 97.44,156.07 Z" fill="rgb(111,164,81)"/>
<path d="M 0.00 164.00 L 0.00 0.00 L 164.00 0.00 L 328.00 0.00 L 328.00 164.00 L 328.00 328.00 L 164.00 328.00 L 0.00 328.00 L 0.00 164.00 ZM 158.19 291.01 C198.48,287.09 232.52,271.57 259.03,245.04 C284.67,219.37 296.90,191.70 299.46,153.50 C299.80,148.55 299.67,143.91 299.19,143.19 C298.35,141.94 297.01,144.19 292.11,155.00 C289.88,159.94 280.50,174.12 275.03,180.82 C270.68,186.15 254.07,200.69 244.07,207.91 C234.93,214.52 220.28,221.85 205.04,227.43 C188.61,233.45 180.27,235.23 162.50,236.49 C149.37,237.42 121.31,237.12 116.50,236.00 C113.75,235.36 109.70,234.59 107.50,234.30 C105.30,234.01 103.05,233.42 102.50,232.98 C101.95,232.54 98.57,231.45 95.00,230.55 C91.43,229.66 87.60,228.56 86.50,228.11 C81.12,225.91 66.94,218.22 62.50,215.11 C54.33,209.38 42.01,198.79 42.53,197.94 C42.80,197.51 42.00,196.34 40.75,195.33 C39.51,194.32 37.69,192.26 36.72,190.75 C35.75,189.24 34.58,188.00 34.12,188.00 C33.67,188.00 33.24,204.85 33.18,225.45 L 33.05 262.90 L 35.90 264.93 C42.37,269.53 60.28,278.02 71.50,281.80 C96.92,290.37 129.37,293.81 158.19,291.01 ZM 149.77 228.47 C150.76,228.14 150.98,222.38 150.77,202.27 L 150.50 176.50 L 125.57 176.23 C106.30,176.03 100.45,176.25 99.82,177.23 C98.75,178.88 98.89,218.59 99.98,221.44 C100.67,223.27 102.72,224.05 112.65,226.28 C119.17,227.75 126.07,229.07 128.00,229.22 C132.41,229.57 148.08,229.03 149.77,228.47 ZM 195.00 221.33 C199.12,219.86 205.31,217.40 208.75,215.87 L 215.00 213.08 L 215.00 179.54 L 215.00 146.00 L 191.12 146.00 L 167.23 146.00 L 166.63 148.25 C165.88,151.04 165.80,227.46 166.54,228.21 C167.34,229.01 186.35,224.41 195.00,221.33 ZM 242.50 197.68 C249.79,192.79 265.30,179.63 270.33,174.06 C273.45,170.60 274.01,169.29 274.03,165.25 C274.19,143.10 273.82,114.15 273.36,112.29 L 272.78 110.00 L 250.89 110.00 L 229.00 110.00 L 229.00 156.83 C229.00,182.59 229.28,203.95 229.63,204.29 C230.42,205.09 234.86,202.81 242.50,197.68 ZM 65.87 172.97 C71.02,172.32 76.74,171.17 78.59,170.40 C80.43,169.63 83.72,169.00 85.90,169.00 C88.08,169.00 91.14,168.50 92.68,167.88 C94.23,167.27 96.72,166.60 98.22,166.41 C105.41,165.46 135.88,154.95 150.16,148.49 C181.02,134.53 207.39,116.65 228.76,95.20 C236.14,87.78 241.47,83.17 242.16,83.60 C242.79,83.99 247.60,87.58 252.85,91.59 C258.10,95.60 262.76,98.65 263.20,98.38 C263.64,98.11 264.00,84.24 264.00,67.56 C264.00,42.08 263.76,37.05 262.53,36.02 C261.35,35.04 258.93,35.42 250.28,37.97 C244.35,39.71 237.25,41.73 234.50,42.47 C231.75,43.20 227.02,44.54 224.00,45.45 C220.98,46.36 216.93,47.49 215.00,47.96 C213.07,48.42 209.02,49.55 206.00,50.46 C202.98,51.38 198.68,52.46 196.46,52.87 C194.24,53.28 191.88,53.96 191.21,54.37 C188.59,55.99 188.58,55.97 207.75,67.25 C209.54,68.30 211.00,69.49 211.00,69.89 C211.00,71.01 200.33,83.68 192.29,92.09 C178.63,106.39 157.17,123.33 135.26,137.13 C127.67,141.90 104.75,153.38 97.35,156.11 C94.13,157.29 91.05,158.59 90.50,159.00 C89.95,159.40 88.15,160.05 86.50,160.44 C84.85,160.83 82.15,161.72 80.50,162.42 C78.85,163.12 74.80,164.53 71.50,165.55 C68.20,166.57 64.82,167.72 64.00,168.11 C63.17,168.50 59.80,169.39 56.50,170.08 C48.82,171.69 46.53,173.25 50.59,174.12 C52.19,174.46 54.17,174.60 55.00,174.44 C55.83,174.27 60.72,173.61 65.87,172.97 Z" fill="rgb(254,254,254)"/>
</g>
</svg>